<svg width="220" height="156" xmlns="http://www.w3.org/2000/svg" xmlns:xlink="http://www.w3.org/1999/xlink" xml:space="preserve" overflow="hidden"><defs><linearGradient x1="2200" y1="1166" x2="2200" y2="1316" gradientUnits="userSpaceOnUse" spreadMethod="reflect" id="fill0"><stop offset="0" stop-color="#F0F8FD" stop-opacity="1"/><stop offset="0.74" stop-color="#84E291" stop-opacity="1"/><stop offset="0.83" stop-color="#4EA72E" stop-opacity="1"/><stop offset="1" stop-color="#8ED973" stop-opacity="1"/></linearGradient></defs><g transform="translate(-2090 -1164)"><g><path d="M2296.52 1166 2103.48 1166C2098.25 1166 2094 1170.25 2094 1175.48L2094 1292.72C2094 1297.95 2098.25 1302.21 2103.48 1302.21L2197.41 1302.21 2197.41 1310.83 2151.74 1310.83 2151.74 1316 2248.26 1316 2248.26 1310.83 2202.59 1310.83 2202.59 1302.21 2296.52 1302.21C2301.75 1302.21 2306 1297.95 2306 1292.72L2306 1175.48C2306 1170.25 2301.75 1166 2296.52 1166ZM2300.83 1292.72C2300.83 1295.1 2298.9 1297.03 2296.52 1297.03L2103.48 1297.03C2101.1 1297.03 2099.17 1295.1 2099.17 1292.72L2099.17 1281.52 2300.83 1281.52 2300.83 1292.72ZM2300.83 1276.34 2099.17 1276.34 2099.17 1175.48C2099.17 1173.11 2101.1 1171.17 2103.48 1171.17L2296.52 1171.17C2298.9 1171.17 2300.83 1173.11 2300.83 1175.48L2300.83 1276.34Z" fill="url(#fill0)" fill-rule="evenodd"/></g></g></svg>