<svg width="182" height="252" xmlns="http://www.w3.org/2000/svg" xmlns:xlink="http://www.w3.org/1999/xlink" xml:space="preserve" overflow="hidden"><defs><clipPath id="clip0"><rect x="134" y="204" width="182" height="252"/></clipPath><clipPath id="clip1"><rect x="134" y="204" width="182" height="252"/></clipPath><clipPath id="clip2"><rect x="135" y="204" width="181" height="252"/></clipPath><clipPath id="clip3"><rect x="135" y="204" width="181" height="252"/></clipPath></defs><g clip-path="url(#clip0)" transform="translate(-134 -204)"><g clip-path="url(#clip1)"><g clip-path="url(#clip2)"><g clip-path="url(#clip3)"><g><path d="M507.043 110.148C513.831 103.961 522.857 100.188 532.766 100.188 553.859 100.188 570.96 117.288 570.96 138.382L570.96 178.11C570.96 184.998 565.376 190.581 558.488 190.581 551.6 190.581 546.016 184.998 546.016 178.11L546.016 138.375C546.016 131.057 540.084 125.124 532.766 125.124 525.447 125.124 519.515 131.057 519.515 138.375L519.515 138.382 519.515 178.11C519.515 184.998 513.931 190.581 507.043 190.581 500.155 190.581 494.572 184.998 494.572 178.11L494.572 138.375C494.572 131.057 488.639 125.124 481.321 125.124 474.002 125.124 468.07 131.057 468.07 138.375L468.07 178.11C468.07 184.998 462.486 190.581 455.598 190.581 448.71 190.581 443.127 184.998 443.127 178.11L443.127 138.382C443.127 117.288 460.227 100.188 481.321 100.188 491.229 100.188 500.256 103.961 507.043 110.148ZM418.184 100.188C425.071 100.188 430.655 105.772 430.655 112.659L430.655 147.71C430.655 171.387 411.461 190.581 387.784 190.581 364.107 190.581 344.914 171.387 344.914 147.71L344.914 112.659C344.914 105.772 350.497 100.188 357.385 100.188 364.273 100.188 369.857 105.772 369.857 112.659L369.857 147.717C369.857 157.619 377.883 165.645 387.784 165.645 397.686 165.645 405.712 157.619 405.712 147.717L405.712 112.659C405.712 105.772 411.296 100.188 418.184 100.188ZM656.701 100.188C663.589 100.188 669.173 105.772 669.173 112.659L669.173 147.71C669.173 171.387 649.979 190.581 626.302 190.581 602.625 190.581 583.431 171.387 583.431 147.71L583.431 112.659C583.431 105.772 589.015 100.188 595.903 100.188 602.79 100.188 608.374 105.772 608.374 112.659L608.374 147.717C608.374 157.619 616.401 165.645 626.302 165.645 636.203 165.645 644.23 157.619 644.23 147.717L644.23 112.659C644.23 105.772 649.813 100.188 656.701 100.188ZM694.116 51.6923C701.003 51.6923 706.587 57.276 706.587 64.1638L706.587 178.11C706.587 184.998 701.003 190.581 694.116 190.581 687.228 190.581 681.644 184.998 681.644 178.11L681.644 64.1638C681.644 57.276 687.228 51.6923 694.116 51.6923ZM765.827 193.698C739.136 193.698 717.5 172.068 717.5 145.385 717.5 118.702 739.136 97.071 765.827 97.071 792.517 97.071 814.154 118.702 814.154 145.385 814.154 172.068 792.517 193.698 765.827 193.698ZM765.827 170.321C779.602 170.321 790.77 159.156 790.77 145.385 790.77 131.613 779.602 120.449 765.827 120.449 752.051 120.449 740.884 131.613 740.884 145.385 740.884 159.156 752.051 170.321 765.827 170.321ZM318.868 162.087 334.756 177.972C339.681 182.896 339.682 190.88 334.758 195.805 334.758 195.805 334.757 195.806 334.756 195.806 329.83 200.731 321.844 200.731 316.918 195.806L301.03 179.922C301.002 179.941 300.974 179.96 300.946 179.978 297.397 182.353 293.622 184.377 289.671 186.015 285.73 187.648 281.629 188.893 277.419 189.726 273.258 190.549 269.006 190.966 264.708 190.966 260.409 190.966 256.157 190.549 251.996 189.726 247.786 188.893 243.685 187.648 239.745 186.015 235.793 184.377 232.018 182.353 228.47 179.978 224.923 177.605 221.616 174.888 218.599 171.871 215.581 168.854 212.864 165.548 210.49 162.002 208.115 158.455 206.091 154.68 204.453 150.73 202.818 146.79 201.574 142.69 200.741 138.481 199.918 134.321 199.5 130.069 199.5 125.772 199.5 89.7656 228.694 60.5769 264.708 60.5769 300.721 60.5769 329.915 89.7656 329.915 125.772 329.915 130.069 329.498 134.321 328.674 138.481 327.842 142.69 326.597 146.79 324.963 150.73 323.324 154.68 321.301 158.455 318.925 162.002 318.906 162.031 318.887 162.059 318.868 162.087ZM264.708 165.554C267.348 165.554 269.948 165.298 272.487 164.796 275.047 164.29 277.539 163.534 279.935 162.54 282.34 161.543 284.641 160.31 286.806 158.861 288.974 157.41 290.997 155.748 292.843 153.902 294.69 152.056 296.352 150.033 297.804 147.865 299.253 145.701 300.486 143.401 301.484 140.996 302.477 138.6 303.234 136.109 303.74 133.549 304.242 131.011 304.498 128.411 304.498 125.772 304.498 103.801 286.683 85.9895 264.708 85.9895 242.732 85.9895 224.918 103.801 224.918 125.772 224.918 128.411 225.173 131.011 225.675 133.549 226.182 136.109 226.938 138.6 227.932 140.996 228.929 143.401 230.162 145.701 231.612 147.865 233.063 150.033 234.725 152.056 236.572 153.902 238.418 155.748 240.441 157.41 242.609 158.861 244.774 160.31 247.075 161.543 249.481 162.54 251.876 163.534 254.368 164.29 256.928 164.796 259.467 165.298 262.067 165.554 264.708 165.554Z" fill="#2C2C4A" fill-rule="evenodd" fill-opacity="1" transform="matrix(1.00424 0 0 1 135.811 204.808)"/><path d="M124.385 105 142.84 105C148.706 105 153.462 109.755 153.462 115.622L153.462 142.84C153.462 148.706 148.706 153.462 142.84 153.462L115.622 153.462C109.755 153.462 105 148.706 105 142.84L105 123.347C105 113.214 96.7856 105 86.6527 105L78.4457 105 26.5543 105C11.8888 105 3.46136e-13 93.1112 3.4434e-13 78.4457L3.4434e-13 26.5543C3.42544e-13 11.8888 11.8888 5.65116e-13 26.5543 5.62422e-13L78.4457 5.62422e-13C93.1112 5.59728e-13 105 11.8888 105 26.5543L105 78.4457C105 78.5364 105 78.627 104.999 78.7174L105 85.6154C105 96.3212 113.679 105 124.385 105Z" fill="#00A3CA" fill-rule="evenodd" fill-opacity="1" transform="matrix(-1.00424 1.22465e-16 -1.22984e-16 -1 289.923 358.269)"/><path d="M124.385 201.923 142.84 201.923C148.706 201.923 153.462 206.679 153.462 212.545L153.462 239.763C153.462 245.629 148.706 250.385 142.84 250.385L115.622 250.385C109.755 250.385 105 245.629 105 239.763L105 220.27C105 210.137 96.7856 201.923 86.6527 201.923L78.4457 201.923 26.5543 201.923C11.8888 201.923 3.46136e-13 190.034 3.4434e-13 175.369L3.4434e-13 123.477C3.42544e-13 108.812 11.8888 96.9231 26.5543 96.9231L78.4457 96.9231C93.1112 96.9231 105 108.812 105 123.477L105 175.369C105 175.459 105 175.55 104.999 175.64L105 182.538C105 193.244 113.679 201.923 124.385 201.923Z" fill="#007CAC" fill-rule="evenodd" fill-opacity="1" transform="matrix(1.00424 0 0 1 135.811 204.808)"/><path d="M48.4615 96.9231 78.4457 96.9231C93.1112 96.9231 105 108.812 105 123.477L105 153.462 75.0158 153.462C60.3503 153.462 48.4615 141.573 48.4615 126.907L48.4615 96.9231Z" fill="#1F4E84" fill-rule="evenodd" fill-opacity="0.75" transform="matrix(1.00424 0 0 1 135.811 204.808)"/></g></g></g></g></g></svg>