<svg width="629" height="720" xmlns="http://www.w3.org/2000/svg" xmlns:xlink="http://www.w3.org/1999/xlink" xml:space="preserve" overflow="hidden"><defs><clipPath id="clip0"><rect x="325" y="0" width="629" height="720"/></clipPath><clipPath id="clip1"><rect x="325" y="0" width="629" height="720"/></clipPath><clipPath id="clip2"><rect x="326" y="0" width="628" height="720"/></clipPath><clipPath id="clip3"><rect x="326" y="0" width="629" height="720"/></clipPath><clipPath id="clip4"><rect x="326" y="0" width="629" height="720"/></clipPath></defs><g clip-path="url(#clip0)" transform="translate(-325 0)"><g clip-path="url(#clip1)"><g clip-path="url(#clip2)"><g clip-path="url(#clip3)"><g clip-path="url(#clip4)"><path d="M0 578.561 23.4579 578.561 77.6627 650.458 77.6627 578.561 102.81 578.561 102.81 694.806 81.2079 694.806 25.1807 621.401 25.1807 694.79-1.47138e-14 694.79ZM177.475 643.683C176.017 632.517 169.39 624.913 158.871 624.913 148.434 624.913 141.642 632.368 139.621 643.683ZM115.02 651.138 115.02 650.806C115.02 625.559 133.077 604.852 158.871 604.852 188.392 604.852 201.976 627.746 201.976 652.728 201.976 654.766 201.81 657.035 201.661 659.371L140.035 659.371C142.52 670.703 150.372 676.683 161.621 676.683 170.119 676.683 176.182 674.032 183.14 667.621L197.454 680.328C189.286 690.516 177.309 696.745 161.289 696.745 134.684 696.745 115.02 678.141 115.02 651.121M217.681 669.725 217.681 627.912 207.079 627.912 207.079 606.475 217.681 606.475 217.681 583.895 242.762 583.895 242.762 606.475 263.636 606.475 263.636 627.912 242.762 627.912 242.762 665.6C242.762 671.431 245.264 674.181 250.847 674.181 255.535 674.181 259.66 673.038 263.305 671.1L263.305 691.145C257.97 694.309 251.824 696.264 243.408 696.264 228.118 696.264 217.681 690.184 217.681 669.725M463.508 650.806 463.508 650.475C463.508 635.847 453.568 626.056 441.823 626.056 430.077 626.056 420.386 635.831 420.386 650.475L420.386 650.806C420.386 665.451 430.094 675.242 441.823 675.242 453.552 675.242 463.508 665.617 463.508 650.806ZM395.553 606.475 420.717 606.475 420.717 619.181C426.781 610.931 435.196 604.868 448.3 604.868 468.925 604.868 488.589 620.954 488.589 650.475L488.589 650.806C488.589 680.328 469.257 696.43 448.3 696.43 434.881 696.43 426.615 690.367 420.717 683.326L420.717 721.18 395.553 721.18ZM566.799 650.806 566.799 650.475C566.799 635.847 556.859 626.056 545.114 626.056 533.368 626.056 523.61 635.831 523.61 650.475L523.61 650.806C523.61 665.451 533.385 675.242 545.114 675.242 556.842 675.242 566.799 665.617 566.799 650.806ZM498.844 606.475 524.008 606.475 524.008 619.181C530.071 610.931 538.487 604.868 551.591 604.868 572.216 604.868 591.88 620.954 591.88 650.475L591.88 650.806C591.88 680.328 572.547 696.43 551.591 696.43 538.172 696.43 529.906 690.367 524.008 683.326L524.008 721.18 498.844 721.18ZM344.512 646.516 329.139 609.076 313.782 646.516ZM318.056 578.561 340.951 578.561 389.241 694.806 362.802 694.806 352.116 668.93 306.244 668.93 295.642 694.806 269.699 694.806Z" fill="#0067C6" fill-rule="nonzero" fill-opacity="1" transform="matrix(1 0 0 1.00066 326.674 -1.65773)"/><path d="M0 1.65663 0 491.439 229.161 491.439 229.161 197.569 360.118 197.569 360.118 491.455 589.279 491.455 589.279 1.65663Z" fill="#0067C6" fill-rule="nonzero" fill-opacity="1" transform="matrix(1 0 0 1.00066 326.674 -1.65773)"/><path d="M626.653 626.205 623.671 626.205 623.671 609.705 623.571 609.705 617.757 626.205 615.885 626.205 610.07 609.705 609.987 609.705 609.987 626.205 607.005 626.205 607.005 606.475 611.611 606.475 616.862 621.434 622.114 606.475 626.653 606.475ZM603.443 609.059 597.861 609.059 597.861 626.205 594.879 626.205 594.862 609.059 589.279 609.059 589.279 606.475 603.443 606.475Z" fill="#0067C6" fill-rule="nonzero" fill-opacity="1" transform="matrix(1 0 0 1.00066 326.674 -1.65773)"/></g></g></g></g></g></svg>